<svg xmlns="http://www.w3.org/2000/svg" viewBox="0 0 104.01 36.86"><defs><style>.cls-1{fill:white;stroke:none;stroke-miterlimit:10;stroke-width:0.25px;}</style></defs><g id="Calque_2" data-name="Calque 2"><g id="Calque_1-2" data-name="Calque 1"><g id="Calque_2-2" data-name="Calque 2"><g id="Layer_1" data-name="Layer 1"><path class="cls-1" d="M23.79,13.9l79,3.44a1.09,1.09,0,1,1,0,2.18L23.79,23a1.1,1.1,0,0,0-1,.8l-3.3,12.17a1.09,1.09,0,0,1-2.1,0L14,23.59a1.08,1.08,0,0,0-.77-.76L.92,19.48a1.08,1.08,0,0,1-.75-1.34,1.1,1.1,0,0,1,.75-.76L13.26,14a1,1,0,0,0,.77-.77L17.38.92a1.09,1.09,0,0,1,2.1,0l3.3,12.2A1.1,1.1,0,0,0,23.79,13.9Z"/></g></g></g></g></svg>