<svg xmlns="http://www.w3.org/2000/svg" viewBox="0 0 104.01 36.86"><defs><style>.cls-1{fill:#FFFFFF;stroke:none;stroke-miterlimit:10;stroke-width:0.25px;}</style></defs><g id="Calque_2" data-name="Calque 2"><g id="Calque_1-2" data-name="Calque 1"><g id="Calque_2-2" data-name="Calque 2"><g id="Layer_1" data-name="Layer 1"><path class="cls-1" d="M80.21,23l-79-3.44a1.09,1.09,0,0,1,0-2.18l79-3.44a1.07,1.07,0,0,0,1-.8L84.51.92A1.09,1.09,0,0,1,85.86.17a1.07,1.07,0,0,1,.75.75L90,13.26a1.08,1.08,0,0,0,.77.76l12.34,3.35a1.1,1.1,0,0,1,.76,1.35,1.08,1.08,0,0,1-.76.75L90.74,22.82a1.09,1.09,0,0,0-.77.77L86.62,35.93a1.09,1.09,0,0,1-2.1,0l-3.3-12.2A1.09,1.09,0,0,0,80.21,23Z"/></g></g></g></g></svg>